Coordinates
version=1
nRows=9
nColumns=24
inDegrees=yes

Units are S.I. units (second, meters, Newtons, ...)
Angles are in degrees.

endheader
time	pelvis_tilt	pelvis_list	pelvis_rotation	pelvis_tx	pelvis_ty	pelvis_tz	hip_flexion_r	hip_adduction_r	hip_rotation_r	knee_angle_r	ankle_angle_r	subtalar_angle_r	mtp_angle_r	hip_flexion_l	hip_adduction_l	hip_rotation_l	knee_angle_l	ankle_angle_l	subtalar_angle_l	mtp_angle_l	lumbar_extension	lumbar_bending	lumbar_rotation
      0.74150000	      0.68312897	     -4.33802437	     -3.98556773	     -0.46785795	      1.01597813	      0.33357988	     10.11381702	      7.44539228	     -1.33421814	    -15.05557327	     -2.00926949	    -12.45765654	     -4.49746965	     18.36564165	    -10.89822471	    -10.20015968	    -75.41767465	     -0.32503144	    -15.05515886	     -3.77811368	    -11.21540003	      6.22242783	      7.68100433
      0.74566667	      0.75989665	     -4.17666644	     -4.07772772	     -0.46248840	      1.01707979	      0.33405052	      9.55652020	      7.30047468	     -1.13262442	    -14.77410643	     -1.91547069	    -12.50213466	     -4.47351165	     18.95137818	    -10.76452671	    -10.26317741	    -75.33665245	      0.05764760	    -15.01474211	     -3.77811368	    -11.30112357	      5.99063366	      7.86588567
      0.74983333	      0.92180394	     -4.02034084	     -4.23205057	     -0.45706468	      1.01834513	      0.33471464	      8.87846756	      7.17253435	     -0.84061548	    -14.44474076	     -1.81991264	    -12.54455076	     -4.41278208	     19.38072221	    -10.67290186	    -10.42424658	    -75.13590346	      0.38512819	    -14.89086912	     -3.77811368	    -11.47645905	      5.72582947	      8.25107333
      0.75400000	      0.94750097	     -3.89311047	     -4.28939642	     -0.45165713	      1.01930719	      0.33508346	      8.35724398	      7.05059068	     -0.69515302	    -14.12857716	     -1.72381934	    -12.56884518	     -4.40272050	     20.00229217	    -10.56285305	    -10.47172948	    -74.91987589	      0.69243120	    -14.97530981	     -3.77811368	    -11.48641411	      5.56029566	      8.29608707
      0.75816667	      1.02307983	     -3.72006974	     -4.35719410	     -0.44631100	      1.02034927	      0.33542762	      7.79265226	      6.87065145	     -0.54538842	    -13.81588495	     -1.68937757	    -12.60256675	     -4.38310565	     20.53982902	    -10.39017352	    -10.54763667	    -74.60681018	      1.05594392	    -14.96801109	     -3.77811368	    -11.58206106	      5.31573754	      8.42890821
      0.76233333	      1.25178708	     -3.55822779	     -4.48683328	     -0.44082050	      1.02171036	      0.33598225	      7.00616592	      6.70698171	     -0.30478467	    -13.41209988	     -1.61551655	    -12.60398717	     -4.32515269	     20.82261263	    -10.26874105	    -10.74232481	    -74.14237701	      1.28850941	    -14.94345832	     -3.77811368	    -11.82502800	      5.03793377	      8.75597612
      0.76650000	      1.36704511	     -3.41284419	     -4.56678506	     -0.43536140	      1.02280609	      0.33636347	      6.35188851	      6.55126532	     -0.13533310	    -13.01960828	     -1.57954347	    -12.63245641	     -4.27562257	     21.24814814	    -10.13681744	    -10.87235065	    -73.65376829	      1.55113901	    -15.00590899	     -3.77811368	    -11.94210798	      4.82962464	      8.90565781
      0.77066667	      1.51075201	     -3.27433468	     -4.63437882	     -0.42987870	      1.02392465	      0.33671724	      5.65181647	      6.39437729	      0.01218549	    -12.59866851	     -1.54314903	    -12.63413386	     -4.23000665	     21.61787914	    -10.00411599	    -11.00601366	    -73.08793952	      1.79789664	    -15.07332329	     -3.77811368	    -12.08807423	      4.61733820	      9.04859039
      0.77483333	      1.64853135	     -3.13248195	     -4.80371413	     -0.42439602	      1.02500277	      0.33735520	      4.95547078	      6.25649298	      0.29628751	    -12.17582509	     -1.52532676	    -12.70166045	     -3.23991902	     21.93223907	     -9.93128300	    -11.27248273	    -72.43918540	      2.01356769	    -15.12610287	    -18.08109661	    -12.22463337	      4.35628782	      9.31153124
